<svg height="1982" width="720" xmlns="http://www.w3.org/2000/svg">
<rect height="1982" fill="#555" width="720"></rect>
<text fill="#7f7" font-family="Courier New" font-size="12" xml:space="preserve">
<tspan x="10" y="26">21 megabytes installed</tspan>
<tspan x="10" y="42"></tspan>
<tspan x="10" y="58">node_modules</tspan>
<tspan x="10" y="74">├─┬ express-react-views@0.10.2 </tspan>
<tspan x="10" y="90">│ ├─┬ babel-preset-es2015@6.24.1 </tspan>
<tspan x="10" y="106">│ │ ├── babel-plugin-check-es2015-constants@6.22.0 </tspan>
<tspan x="10" y="122">│ │ ├── babel-plugin-transform-es2015-arrow-functions@6.22.0 </tspan>
<tspan x="10" y="138">│ │ ├── babel-plugin-transform-es2015-block-scoped-functions@6.22.0 </tspan>
<tspan x="10" y="154">│ │ ├─┬ babel-plugin-transform-es2015-block-scoping@6.24.1 </tspan>
<tspan x="10" y="170">│ │ │ ├── babel-template@6.24.1 </tspan>
<tspan x="10" y="186">│ │ │ ├─┬ babel-traverse@6.24.1 </tspan>
<tspan x="10" y="202">│ │ │ │ ├── globals@9.17.0 </tspan>
<tspan x="10" y="218">│ │ │ │ └─┬ invariant@2.2.2 </tspan>
<tspan x="10" y="234">│ │ │ │   └── loose-envify@1.3.1 </tspan>
<tspan x="10" y="250">│ │ │ └─┬ babel-types@6.24.1 </tspan>
<tspan x="10" y="266">│ │ │   ├── esutils@2.0.2 </tspan>
<tspan x="10" y="282">│ │ │   └── to-fast-properties@1.0.2 </tspan>
<tspan x="10" y="298">│ │ ├─┬ babel-plugin-transform-es2015-classes@6.24.1 </tspan>
<tspan x="10" y="314">│ │ │ ├── babel-helper-define-map@6.24.1 </tspan>
<tspan x="10" y="330">│ │ │ ├── babel-helper-function-name@6.24.1 </tspan>
<tspan x="10" y="346">│ │ │ ├── babel-helper-optimise-call-expression@6.24.1 </tspan>
<tspan x="10" y="362">│ │ │ ├── babel-helper-replace-supers@6.24.1 </tspan>
<tspan x="10" y="378">│ │ │ └── babel-messages@6.23.0 </tspan>
<tspan x="10" y="394">│ │ ├── babel-plugin-transform-es2015-computed-properties@6.24.1 </tspan>
<tspan x="10" y="410">│ │ ├── babel-plugin-transform-es2015-destructuring@6.23.0 </tspan>
<tspan x="10" y="426">│ │ ├── babel-plugin-transform-es2015-duplicate-keys@6.24.1 </tspan>
<tspan x="10" y="442">│ │ ├── babel-plugin-transform-es2015-for-of@6.23.0 </tspan>
<tspan x="10" y="458">│ │ ├── babel-plugin-transform-es2015-function-name@6.24.1 </tspan>
<tspan x="10" y="474">│ │ ├── babel-plugin-transform-es2015-literals@6.22.0 </tspan>
<tspan x="10" y="490">│ │ ├── babel-plugin-transform-es2015-modules-amd@6.24.1 </tspan>
<tspan x="10" y="506">│ │ ├─┬ babel-plugin-transform-es2015-modules-commonjs@6.24.1 </tspan>
<tspan x="10" y="522">│ │ │ └── babel-plugin-transform-strict-mode@6.24.1 </tspan>
<tspan x="10" y="538">│ │ ├─┬ babel-plugin-transform-es2015-modules-systemjs@6.24.1 </tspan>
<tspan x="10" y="554">│ │ │ └── babel-helper-hoist-variables@6.24.1 </tspan>
<tspan x="10" y="570">│ │ ├── babel-plugin-transform-es2015-modules-umd@6.24.1 </tspan>
<tspan x="10" y="586">│ │ ├── babel-plugin-transform-es2015-object-super@6.24.1 </tspan>
<tspan x="10" y="602">│ │ ├─┬ babel-plugin-transform-es2015-parameters@6.24.1 </tspan>
<tspan x="10" y="618">│ │ │ ├── babel-helper-call-delegate@6.24.1 </tspan>
<tspan x="10" y="634">│ │ │ └── babel-helper-get-function-arity@6.24.1 </tspan>
<tspan x="10" y="650">│ │ ├── babel-plugin-transform-es2015-shorthand-properties@6.24.1 </tspan>
<tspan x="10" y="666">│ │ ├── babel-plugin-transform-es2015-spread@6.22.0 </tspan>
<tspan x="10" y="682">│ │ ├─┬ babel-plugin-transform-es2015-sticky-regex@6.24.1 </tspan>
<tspan x="10" y="698">│ │ │ └── babel-helper-regex@6.24.1 </tspan>
<tspan x="10" y="714">│ │ ├── babel-plugin-transform-es2015-template-literals@6.22.0 </tspan>
<tspan x="10" y="730">│ │ ├── babel-plugin-transform-es2015-typeof-symbol@6.23.0 </tspan>
<tspan x="10" y="746">│ │ ├─┬ babel-plugin-transform-es2015-unicode-regex@6.24.1 </tspan>
<tspan x="10" y="762">│ │ │ └─┬ regexpu-core@2.0.0 </tspan>
<tspan x="10" y="778">│ │ │   ├── regenerate@1.3.2 </tspan>
<tspan x="10" y="794">│ │ │   ├── regjsgen@0.2.0 </tspan>
<tspan x="10" y="810">│ │ │   └─┬ regjsparser@0.1.5 </tspan>
<tspan x="10" y="826">│ │ │     └── jsesc@0.5.0 </tspan>
<tspan x="10" y="842">│ │ └─┬ babel-plugin-transform-regenerator@6.24.1 </tspan>
<tspan x="10" y="858">│ │   └── regenerator-transform@0.9.11 </tspan>
<tspan x="10" y="874">│ ├─┬ babel-preset-react@6.24.1 </tspan>
<tspan x="10" y="890">│ │ ├── babel-plugin-syntax-jsx@6.18.0 </tspan>
<tspan x="10" y="906">│ │ ├── babel-plugin-transform-react-display-name@6.23.0 </tspan>
<tspan x="10" y="922">│ │ ├─┬ babel-plugin-transform-react-jsx@6.24.1 </tspan>
<tspan x="10" y="938">│ │ │ └── babel-helper-builder-react-jsx@6.24.1 </tspan>
<tspan x="10" y="954">│ │ ├── babel-plugin-transform-react-jsx-self@6.22.0 </tspan>
<tspan x="10" y="970">│ │ ├── babel-plugin-transform-react-jsx-source@6.22.0 </tspan>
<tspan x="10" y="986">│ │ └─┬ babel-preset-flow@6.23.0 </tspan>
<tspan x="10" y="1002">│ │   └─┬ babel-plugin-transform-flow-strip-types@6.22.0 </tspan>
<tspan x="10" y="1018">│ │     └── babel-plugin-syntax-flow@6.18.0 </tspan>
<tspan x="10" y="1034">│ ├─┬ babel-register@6.24.1 </tspan>
<tspan x="10" y="1050">│ │ ├─┬ babel-core@6.24.1 </tspan>
<tspan x="10" y="1066">│ │ │ ├─┬ babel-code-frame@6.22.0 </tspan>
<tspan x="10" y="1082">│ │ │ │ ├─┬ chalk@1.1.3 </tspan>
<tspan x="10" y="1098">│ │ │ │ │ ├── ansi-styles@2.2.1 </tspan>
<tspan x="10" y="1114">│ │ │ │ │ ├── escape-string-regexp@1.0.5 </tspan>
<tspan x="10" y="1130">│ │ │ │ │ ├─┬ has-ansi@2.0.0 </tspan>
<tspan x="10" y="1146">│ │ │ │ │ │ └── ansi-regex@2.1.1 </tspan>
<tspan x="10" y="1162">│ │ │ │ │ ├── strip-ansi@3.0.1 </tspan>
<tspan x="10" y="1178">│ │ │ │ │ └── supports-color@2.0.0 </tspan>
<tspan x="10" y="1194">│ │ │ │ └── js-tokens@3.0.1 </tspan>
<tspan x="10" y="1210">│ │ │ ├─┬ babel-generator@6.24.1 </tspan>
<tspan x="10" y="1226">│ │ │ │ ├─┬ detect-indent@4.0.0 </tspan>
<tspan x="10" y="1242">│ │ │ │ │ └─┬ repeating@2.0.1 </tspan>
<tspan x="10" y="1258">│ │ │ │ │   └─┬ is-finite@1.0.2 </tspan>
<tspan x="10" y="1274">│ │ │ │ │     └── number-is-nan@1.0.1 </tspan>
<tspan x="10" y="1290">│ │ │ │ ├── jsesc@1.3.0 </tspan>
<tspan x="10" y="1306">│ │ │ │ └── trim-right@1.0.1 </tspan>
<tspan x="10" y="1322">│ │ │ ├── babel-helpers@6.24.1 </tspan>
<tspan x="10" y="1338">│ │ │ ├── babylon@6.16.1 </tspan>
<tspan x="10" y="1354">│ │ │ ├── convert-source-map@1.5.0 </tspan>
<tspan x="10" y="1370">│ │ │ ├─┬ debug@2.6.3 </tspan>
<tspan x="10" y="1386">│ │ │ │ └── ms@0.7.2 </tspan>
<tspan x="10" y="1402">│ │ │ ├── json5@0.5.1 </tspan>
<tspan x="10" y="1418">│ │ │ ├─┬ minimatch@3.0.3 </tspan>
<tspan x="10" y="1434">│ │ │ │ └─┬ brace-expansion@1.1.7 </tspan>
<tspan x="10" y="1450">│ │ │ │   ├── balanced-match@0.4.2 </tspan>
<tspan x="10" y="1466">│ │ │ │   └── concat-map@0.0.1 </tspan>
<tspan x="10" y="1482">│ │ │ ├── path-is-absolute@1.0.1 </tspan>
<tspan x="10" y="1498">│ │ │ ├── private@0.1.7 </tspan>
<tspan x="10" y="1514">│ │ │ ├── slash@1.0.0 </tspan>
<tspan x="10" y="1530">│ │ │ └── source-map@0.5.6 </tspan>
<tspan x="10" y="1546">│ │ ├─┬ babel-runtime@6.23.0 </tspan>
<tspan x="10" y="1562">│ │ │ └── regenerator-runtime@0.10.3 </tspan>
<tspan x="10" y="1578">│ │ ├── core-js@2.4.1 </tspan>
<tspan x="10" y="1594">│ │ ├─┬ home-or-tmp@2.0.0 </tspan>
<tspan x="10" y="1610">│ │ │ ├── os-homedir@1.0.2 </tspan>
<tspan x="10" y="1626">│ │ │ └── os-tmpdir@1.0.2 </tspan>
<tspan x="10" y="1642">│ │ ├── lodash@4.17.4 </tspan>
<tspan x="10" y="1658">│ │ ├─┬ mkdirp@0.5.1 </tspan>
<tspan x="10" y="1674">│ │ │ └── minimist@0.0.8 </tspan>
<tspan x="10" y="1690">│ │ └── source-map-support@0.4.14 </tspan>
<tspan x="10" y="1706">│ ├─┬ js-beautify@1.6.12 </tspan>
<tspan x="10" y="1722">│ │ ├─┬ config-chain@1.1.11 </tspan>
<tspan x="10" y="1738">│ │ │ ├── ini@1.3.4 </tspan>
<tspan x="10" y="1754">│ │ │ └── proto-list@1.2.4 </tspan>
<tspan x="10" y="1770">│ │ ├─┬ editorconfig@0.13.2 </tspan>
<tspan x="10" y="1786">│ │ │ ├── bluebird@3.5.0 </tspan>
<tspan x="10" y="1802">│ │ │ ├─┬ commander@2.9.0 </tspan>
<tspan x="10" y="1818">│ │ │ │ └── graceful-readlink@1.0.1 </tspan>
<tspan x="10" y="1834">│ │ │ ├─┬ lru-cache@3.2.0 </tspan>
<tspan x="10" y="1850">│ │ │ │ └── pseudomap@1.0.2 </tspan>
<tspan x="10" y="1866">│ │ │ └── sigmund@1.0.1 </tspan>
<tspan x="10" y="1882">│ │ └─┬ nopt@3.0.6 </tspan>
<tspan x="10" y="1898">│ │   └── abbrev@1.1.0 </tspan>
<tspan x="10" y="1914">│ ├── lodash.escaperegexp@4.1.2 </tspan>
<tspan x="10" y="1930">│ └── object-assign@4.1.1 </tspan>
<tspan x="10" y="1946">├── UNMET PEER DEPENDENCY react@^0.14.0 || ^15.0.0</tspan>
<tspan x="10" y="1962">└── UNMET PEER DEPENDENCY react-dom@^0.14.0 || ^15.0.0</tspan>
</text>
</svg>
